<svg width="18" height="15" viewBox="0 0 18 15" fill="none" xmlns="http://www.w3.org/2000/svg">
<g clip-path="url(#clip0_1_150)">
<path d="M7.71674 12.9102C7.08327 12.9102 6.47146 12.827 5.88129 12.6606C5.29112 12.4943 4.73627 12.2573 4.21674 11.9497C3.6972 11.6421 3.22552 11.2764 2.8017 10.8525C2.37787 10.4287 2.01215 9.95703 1.70453 9.4375C1.39691 8.91797 1.15993 8.36312 0.993591 7.77295C0.82725 7.18278 0.74408 6.57096 0.74408 5.9375C0.74408 5.29948 0.82725 4.68652 0.993591 4.09863C1.15993 3.51074 1.39577 2.95703 1.70111 2.4375C2.00645 1.91797 2.37103 1.44629 2.79486 1.02246C3.21869 0.598633 3.69037 0.23291 4.2099 -0.074707C4.72943 -0.382324 5.28428 -0.619304 5.87445 -0.785645C6.46462 -0.951985 7.07644 -1.03516 7.7099 -1.03516C8.34792 -1.03516 8.96202 -0.951985 9.55219 -0.785645C10.1424 -0.619304 10.6961 -0.382324 11.2133 -0.074707C11.7306 0.23291 12.2023 0.598633 12.6284 1.02246C13.0545 1.44629 13.4213 1.91797 13.7289 2.4375C14.0366 2.95703 14.2735 3.51074 14.4399 4.09863C14.6062 4.68652 14.6894 5.29948 14.6894 5.9375C14.6894 6.57096 14.6062 7.18278 14.4399 7.77295C14.2735 8.36312 14.0366 8.91797 13.7289 9.4375C13.4213 9.95703 13.0556 10.4287 12.6318 10.8525C12.2079 11.2764 11.7363 11.6421 11.2167 11.9497C10.6972 12.2573 10.1435 12.4943 9.5556 12.6606C8.96771 12.827 8.35476 12.9102 7.71674 12.9102ZM6.4726 8.57617L10.3144 6.2998C10.4101 6.24512 10.4728 6.17106 10.5024 6.07764C10.532 5.98421 10.5309 5.89079 10.499 5.79736C10.4671 5.70394 10.4055 5.62988 10.3144 5.5752L6.4726 3.29883C6.37689 3.23958 6.27663 3.21452 6.17181 3.22363C6.067 3.23275 5.97813 3.26807 5.90521 3.32959C5.8323 3.39111 5.79584 3.47428 5.79584 3.5791V8.28906C5.79584 8.39388 5.83002 8.47933 5.89838 8.54541C5.96674 8.61149 6.05332 8.64795 6.15814 8.65479C6.26296 8.66162 6.36778 8.63542 6.4726 8.57617Z" fill="#1D1D1F"/>
</g>
<defs>
<clipPath id="clip0_1_150">
<rect width="16.71" height="14" fill="white" transform="matrix(1 0 0 -1 0.469971 14.25)"/>
</clipPath>
</defs>
</svg>
