<svg width="23" height="2" viewBox="0 0 23 2" fill="none" xmlns="http://www.w3.org/2000/svg">
<g clip-path="url(#clip0_1_141)">
<path d="M9.92069 1.1543C9.09457 1.1543 8.29668 1.14836 7.52703 1.13647C6.75737 1.12459 6.03378 1.10767 5.35624 1.08569C4.67871 1.06372 4.06357 1.0376 3.51085 1.00732C2.95812 0.977051 2.48117 0.943359 2.08 0.90625C1.67883 0.869141 1.36978 0.829508 1.15285 0.787354C0.935919 0.745199 0.827454 0.701497 0.827454 0.65625C0.827454 0.610677 0.935919 0.566895 1.15285 0.524902C1.36978 0.48291 1.67734 0.443359 2.07554 0.40625C2.47374 0.369141 2.94921 0.335449 3.50193 0.305176C4.05466 0.274902 4.66979 0.248779 5.34733 0.226807C6.02486 0.204834 6.74846 0.187907 7.51811 0.176025C8.28777 0.164144 9.08565 0.158203 9.91177 0.158203C10.7438 0.158203 11.5447 0.164144 12.3143 0.176025C13.084 0.187907 13.8061 0.204834 14.4807 0.226807C15.1552 0.248779 15.7704 0.274902 16.3261 0.305176C16.8818 0.335449 17.3602 0.369141 17.7614 0.40625C18.1625 0.443359 18.4716 0.48291 18.6885 0.524902C18.9055 0.566895 19.0139 0.610677 19.0139 0.65625C19.0139 0.701497 18.9055 0.745199 18.6885 0.787354C18.4716 0.829508 18.1625 0.869141 17.7614 0.90625C17.3602 0.943359 16.8833 0.977051 16.3305 1.00732C15.7778 1.0376 15.1627 1.06372 14.4851 1.08569C13.8076 1.10767 13.0855 1.12459 12.3188 1.13647C11.5521 1.14836 10.7527 1.1543 9.92069 1.1543ZM8.29817 0.844727L13.3084 0.682129C13.4332 0.678223 13.5149 0.672933 13.5535 0.66626C13.5922 0.659587 13.5907 0.652913 13.5491 0.64624C13.5075 0.639567 13.4272 0.634277 13.3084 0.630371L8.29817 0.467773C8.17336 0.463542 8.04261 0.461751 7.90591 0.462402C7.76922 0.463053 7.65332 0.465576 7.55823 0.469971C7.46314 0.474365 7.41559 0.480306 7.41559 0.487793V0.824219C7.41559 0.831706 7.46017 0.837809 7.54931 0.842529C7.63846 0.847249 7.75139 0.849854 7.88808 0.850342C8.02478 0.85083 8.16147 0.848958 8.29817 0.844727Z" fill="#1D1D1F"/>
</g>
<defs>
<clipPath id="clip0_1_141">
<rect width="21.792" height="1" fill="white" transform="matrix(1 0 0 -1 0.469971 1.25)"/>
</clipPath>
</defs>
</svg>
