<svg width="8" height="22" viewBox="0 0 8 22" fill="none" xmlns="http://www.w3.org/2000/svg">
<g clip-path="url(#clip0_1_73)">
<path d="M1.15574 15.7654C0.986078 15.7654 0.841047 15.7065 0.720644 15.5889C0.600241 15.4712 0.540039 15.3276 0.540039 15.1579C0.540039 14.9882 0.602977 14.8405 0.728853 14.7146L4.04541 11.4062L0.728853 8.09788C0.602977 7.97201 0.540039 7.82424 0.540039 7.65458C0.540039 7.48492 0.600241 7.34126 0.720644 7.22359C0.841047 7.10593 0.986078 7.04709 1.15574 7.04709C1.31445 7.04709 1.45675 7.10456 1.58262 7.21949L5.32607 10.9465C5.45742 11.0669 5.52309 11.2202 5.52309 11.4062C5.52309 11.5814 5.45742 11.7346 5.32607 11.866L1.58262 15.593C1.46769 15.7079 1.3254 15.7654 1.15574 15.7654Z" fill="#0066CC"/>
</g>
<defs>
<clipPath id="clip0_1_73">
<rect width="7.13" height="21" fill="white" transform="matrix(1 0 0 -1 0.540039 21.8899)"/>
</clipPath>
</defs>
</svg>
