<svg width="11" height="29" viewBox="0 0 11 29" fill="none" xmlns="http://www.w3.org/2000/svg">
<g clip-path="url(#clip0_1_18)">
<path d="M1.62414 20.0017C1.41082 20.0017 1.22846 19.9277 1.07706 19.7798C0.925672 19.6318 0.849976 19.4512 0.849976 19.2379C0.849976 19.0245 0.929113 18.8387 1.08739 18.6805L5.25756 14.5206L1.08739 10.3608C0.929113 10.2025 0.849976 10.0167 0.849976 9.80336C0.849976 9.59003 0.925672 9.40939 1.07706 9.26144C1.22846 9.11349 1.41082 9.03951 1.62414 9.03951C1.82371 9.03951 2.00262 9.11177 2.1609 9.25628L6.86783 13.9426C7.03299 14.094 7.11556 14.2866 7.11556 14.5206C7.11556 14.7408 7.03299 14.9335 6.86783 15.0987L2.1609 19.7849C2.01639 19.9295 1.83747 20.0017 1.62414 20.0017Z" fill="#0066CC"/>
</g>
<defs>
<clipPath id="clip0_1_18">
<rect width="9.51" height="29" fill="white" transform="matrix(1 0 0 -1 0.849976 29)"/>
</clipPath>
</defs>
</svg>
