<svg width="9" height="22" viewBox="0 0 9 22" fill="none" xmlns="http://www.w3.org/2000/svg">
<g clip-path="url(#clip0_1_103)">
<path d="M1.52573 15.7654C1.35607 15.7654 1.21104 15.7065 1.09064 15.5889C0.970236 15.4712 0.910034 15.3276 0.910034 15.1579C0.910034 14.9882 0.972972 14.8405 1.09885 14.7146L4.41541 11.4062L1.09885 8.09788C0.972972 7.97201 0.910034 7.82424 0.910034 7.65458C0.910034 7.48492 0.970236 7.34126 1.09064 7.22359C1.21104 7.10593 1.35607 7.04709 1.52573 7.04709C1.68445 7.04709 1.82674 7.10456 1.95262 7.21949L5.69606 10.9465C5.82741 11.0669 5.89309 11.2202 5.89309 11.4062C5.89309 11.5814 5.82741 11.7346 5.69606 11.866L1.95262 15.593C1.83769 15.7079 1.69539 15.7654 1.52573 15.7654Z" fill="#0066CC"/>
</g>
<defs>
<clipPath id="clip0_1_103">
<rect width="7.13" height="21" fill="white" transform="matrix(1 0 0 -1 0.910034 21.8899)"/>
</clipPath>
</defs>
</svg>
