<svg width="1920" height="45" viewBox="0 0 1920 45" fill="none" xmlns="http://www.w3.org/2000/svg">
<g filter="url(#filter0_b_1_261)">
<rect width="1920" height="44" transform="translate(0 0.5)" fill="#161617" fill-opacity="0.8"/>
<path d="M483.073 18.1825C482.552 18.5014 482.121 18.9473 481.819 19.4783C481.517 20.0094 481.355 20.6083 481.348 21.219C481.35 21.9064 481.554 22.578 481.934 23.1508C482.314 23.7235 482.854 24.1722 483.486 24.4413C483.237 25.2459 482.868 26.0084 482.391 26.7031C481.71 27.6843 480.997 28.6654 479.913 28.6654C478.828 28.6654 478.549 28.0354 477.3 28.0354C476.081 28.0354 475.647 28.6861 474.656 28.6861C473.664 28.6861 472.972 27.7772 472.177 26.6618C471.126 25.0992 470.549 23.2667 470.514 21.3842C470.514 18.2858 472.528 16.6437 474.511 16.6437C475.564 16.6437 476.442 17.3356 477.103 17.3356C477.733 17.3356 478.715 16.6023 479.913 16.6023C480.528 16.5864 481.139 16.7222 481.69 16.9978C482.241 17.2733 482.716 17.6802 483.073 18.1825ZM479.345 15.2907C479.873 14.6695 480.172 13.8858 480.191 13.0707C480.192 12.9632 480.182 12.856 480.16 12.7507C479.253 12.8393 478.414 13.2717 477.816 13.9591C477.283 14.5556 476.973 15.3183 476.938 16.1176C476.938 16.2148 476.949 16.3117 476.969 16.4068C477.041 16.4203 477.113 16.4272 477.186 16.4275C477.604 16.3942 478.011 16.2763 478.382 16.0809C478.753 15.8855 479.081 15.6166 479.345 15.2907Z" fill="white" fill-opacity="0.8"/>
<g clip-path="url(#clip0_1_261)">
<path d="M545.708 20.9629C546.71 20.9629 547.378 21.7009 547.401 22.8199H543.921C543.997 21.7009 544.7 20.9629 545.708 20.9629ZM548.462 23.6349V23.2479C548.462 21.2849 547.425 20.0719 545.72 20.0719C543.985 20.0719 542.872 21.3609 542.872 23.3479C542.872 25.3459 543.968 26.6109 545.72 26.6109C547.103 26.6109 548.087 25.9429 548.38 24.8649H547.372C547.108 25.4219 546.558 25.7209 545.743 25.7209C544.671 25.7209 543.974 24.9299 543.921 23.6819V23.6349H548.462ZM538.915 20.1839H539.875V21.1209H539.969C540.157 20.5059 540.883 20.0719 541.721 20.0719C541.885 20.0719 542.096 20.0839 542.225 20.1019V21.1089C542.143 21.0859 541.78 21.0509 541.581 21.0509C540.62 21.0509 539.922 22.1489 539.922 22.5859V26.4999H538.915V20.1839ZM534.645 25.7029C533.45 25.7029 532.776 24.8359 532.776 23.3419C532.776 21.8419 533.45 20.9809 534.645 20.9809C535.841 20.9809 536.515 21.8419 536.515 23.3419C536.515 24.8359 535.841 25.7029 534.645 25.7029ZM534.645 20.0719C532.847 20.0719 531.733 21.3089 531.733 23.3419C531.733 25.3689 532.847 26.6109 534.645 26.6109C536.444 26.6109 537.558 25.3689 537.558 23.3419C537.558 21.3089 536.444 20.0719 534.645 20.0719ZM529.167 18.5969V20.2319H530.574V21.0749H529.167V24.6499C529.167 25.3939 529.449 25.7099 530.105 25.7099C530.287 25.7099 530.386 25.7039 530.574 25.6869V26.5359C530.375 26.5709 530.181 26.5949 529.982 26.5949C528.681 26.5949 528.16 26.1139 528.16 24.9069V21.0749H527.14V20.2319H528.16V18.5969H529.167ZM521.064 24.2909C521.193 25.1759 522.037 25.7379 523.238 25.7379C524.375 25.7379 525.213 25.1229 525.213 24.2849C525.213 23.5649 524.686 23.1079 523.52 22.8149L522.436 22.5329C520.906 22.1469 520.244 21.4549 520.244 20.2539C520.244 18.8179 521.445 17.8459 523.232 17.8459C524.867 17.8459 526.086 18.8179 526.174 20.1839H525.113C524.967 19.3169 524.252 18.8009 523.197 18.8009C522.072 18.8009 521.328 19.3629 521.328 20.2189C521.328 20.8809 521.791 21.2619 522.957 21.5609L523.842 21.7949C525.594 22.2339 526.297 22.9139 526.297 24.1559C526.297 25.7089 525.072 26.6989 523.139 26.6989C521.346 26.6989 520.109 25.7499 519.998 24.2909H521.064Z" fill="white" fill-opacity="0.8"/>
</g>
<g clip-path="url(#clip1_1_261)">
<path d="M592.436 26.4987V20.0417H592.366L589.7 26.4987H588.809L586.143 20.0417H586.073V26.4987H585.088V18.0436H586.313L589.207 25.0983H589.301L592.196 18.0436H593.42V26.4987H592.436ZM594.952 24.7291C594.952 23.5982 595.784 22.9479 597.255 22.86L599.077 22.7487V22.1745C599.077 21.3952 598.591 20.9675 597.648 20.9675C596.892 20.9675 596.365 21.2546 596.224 21.7527H595.204C595.339 20.739 596.335 20.0711 597.683 20.0711C599.224 20.0711 600.085 20.8621 600.085 22.1746V26.4988H599.124V25.567H599.031C598.62 26.2408 597.929 26.61 597.085 26.61C595.861 26.61 594.952 25.8834 594.952 24.7291ZM599.077 24.1432V23.5631L597.378 23.6744C596.417 23.7389 595.995 24.0728 595.995 24.7056C595.995 25.3501 596.54 25.7251 597.273 25.7251C598.31 25.7252 599.077 25.0455 599.077 24.1432ZM606.035 22.1159C605.871 21.4889 605.315 20.9792 604.407 20.9792C603.27 20.9792 602.555 21.8874 602.555 23.3171C602.555 24.7761 603.282 25.7019 604.407 25.7019C605.256 25.7019 605.848 25.3093 606.035 24.5945H607.055C606.873 25.7547 605.93 26.6101 604.412 26.6101C602.643 26.6101 601.512 25.3269 601.512 23.3171C601.512 21.3483 602.637 20.071 604.406 20.071C605.942 20.071 606.879 20.9909 607.055 22.1159H606.035Z" fill="white" fill-opacity="0.8"/>
</g>
<path d="M657.377 24.2002C657.377 25.1022 656.609 25.7822 655.572 25.7822C654.84 25.7822 654.295 25.4072 654.295 24.7622C654.295 24.1302 654.717 23.7962 655.678 23.7312L657.377 23.6202V24.2002ZM655.982 20.1282C654.635 20.1282 653.639 20.7962 653.504 21.8092H654.523C654.664 21.3112 655.191 21.0242 655.947 21.0242C656.891 21.0242 657.377 21.4522 657.377 22.2312V22.8052L655.555 22.9172C654.084 23.0052 653.252 23.6552 653.252 24.7862C653.252 25.9402 654.16 26.6672 655.385 26.6672C656.229 26.6672 656.92 26.2982 657.33 25.6242H657.424V26.5552H658.385V22.2312C658.385 20.9192 657.523 20.1282 655.982 20.1282ZM662.751 25.7032C661.596 25.7032 660.905 24.8182 660.905 23.3422C660.905 21.8712 661.602 20.9802 662.751 20.9802C663.893 20.9802 664.608 21.8942 664.608 23.3422C664.608 24.8012 663.899 25.7032 662.751 25.7032ZM664.585 17.6762V21.1792H664.497C664.139 20.4882 663.395 20.0722 662.516 20.0722C660.911 20.0722 659.862 21.3612 659.862 23.3422C659.862 25.3282 660.899 26.6112 662.516 26.6112C663.389 26.6112 664.139 26.1952 664.538 25.4922H664.631V26.5002H665.592V17.6762H664.585ZM649.191 22.5452H647.328V18.9822H649.191C650.416 18.9822 651.09 19.6212 651.09 20.7812C651.09 21.9002 650.393 22.5452 649.191 22.5452ZM649.467 18.0452H646.273V26.5002H647.328V23.4822H649.455C651.043 23.4822 652.174 22.3632 652.174 20.7812C652.174 19.1702 651.066 18.0452 649.467 18.0452ZM643.403 26.4992H644.411V20.1832H643.403V26.4992ZM643.204 18.2622C643.204 17.8752 643.52 17.5582 643.907 17.5582C644.294 17.5582 644.61 17.8752 644.61 18.2622C644.61 18.6482 644.294 18.9652 643.907 18.9652C643.52 18.9652 643.204 18.6482 643.204 18.2622Z" fill="white" fill-opacity="0.8"/>
<path d="M734.273 22.8203H737.753C737.73 21.7013 737.062 20.9633 736.06 20.9633C735.052 20.9633 734.349 21.7013 734.273 22.8203ZM738.732 24.8653C738.439 25.9433 737.455 26.6113 736.072 26.6113C734.32 26.6113 733.224 25.3453 733.224 23.3473C733.224 21.3613 734.337 20.0723 736.072 20.0723C737.777 20.0723 738.814 21.2853 738.814 23.2483V23.6343H734.273V23.6813C734.326 24.9293 735.023 25.7203 736.095 25.7203C736.91 25.7203 737.461 25.4223 737.724 24.8653H738.732ZM726.45 20.1833H727.411V21.1793H727.505C727.821 20.4823 728.437 20.0723 729.403 20.0723C730.821 20.0723 731.612 20.9103 731.612 22.4103V26.5003H730.605V22.6563C730.605 21.5193 730.124 20.9803 729.116 20.9803C728.108 20.9803 727.458 21.6543 727.458 22.7613V26.5003H726.45V20.1833ZM723.951 23.3413C723.951 21.8413 723.277 20.9803 722.082 20.9803C720.886 20.9803 720.212 21.8413 720.212 23.3413C720.212 24.8363 720.886 25.7033 722.082 25.7033C723.277 25.7033 723.951 24.8363 723.951 23.3413ZM719.169 23.3413C719.169 21.3083 720.283 20.0723 722.082 20.0723C723.88 20.0723 724.994 21.3083 724.994 23.3413C724.994 25.3693 723.88 26.6113 722.082 26.6113C720.283 26.6113 719.169 25.3693 719.169 23.3413ZM712.533 17.6753H713.541V21.1793H713.634C713.951 20.4823 714.613 20.0723 715.58 20.0723C716.916 20.0723 717.759 20.9273 717.759 22.4103V26.5003H716.752V22.6563C716.752 21.5373 716.248 20.9803 715.293 20.9803C714.162 20.9803 713.541 21.6953 713.541 22.7613V26.5003H712.533V17.6753ZM706.518 22.5453H708.381C709.583 22.5453 710.28 21.9003 710.28 20.7813C710.28 19.6213 709.606 18.9823 708.381 18.9823H706.518V22.5453ZM708.657 18.0453C710.256 18.0453 711.364 19.1703 711.364 20.7813C711.364 22.3633 710.233 23.4823 708.645 23.4823H706.518V26.5003H705.463V18.0453H708.657ZM702.543 26.4993H703.551V20.1833H702.543V26.4993ZM702.343 18.2613C702.343 17.8753 702.66 17.5583 703.046 17.5583C703.433 17.5583 703.75 17.8753 703.75 18.2613C703.75 18.6483 703.433 18.9653 703.046 18.9653C702.66 18.9653 702.343 18.6483 702.343 18.2613Z" fill="white" fill-opacity="0.8"/>
<path d="M803.682 17.6758H804.69V21.1798H804.784C805.1 20.4828 805.762 20.0718 806.729 20.0718C808.065 20.0718 808.909 20.9278 808.909 22.4098V26.4998H807.901V22.6558C807.901 21.5368 807.397 20.9808 806.442 20.9808C805.311 20.9808 804.69 21.6958 804.69 22.7618V26.4998H803.682V17.6758ZM801.262 22.1168C801.098 21.4898 800.541 20.9808 799.633 20.9808C798.496 20.9808 797.781 21.8888 797.781 23.3188C797.781 24.7778 798.508 25.7028 799.633 25.7028C800.482 25.7028 801.074 25.3108 801.262 24.5958H802.281C802.099 25.7558 801.156 26.6118 799.639 26.6118C797.869 26.6118 796.738 25.3278 796.738 23.3188C796.738 21.3498 797.863 20.0718 799.633 20.0718C801.168 20.0718 802.105 20.9918 802.281 22.1168H801.262ZM794.729 18.5488V20.1838H796.136V21.0278H794.729V24.6018C794.729 25.3458 795.011 25.6618 795.667 25.6618C795.849 25.6618 795.948 25.6558 796.136 25.6388V26.4888C795.936 26.5238 795.743 26.5468 795.544 26.5468C794.243 26.5468 793.722 26.0668 793.722 24.8598V21.0278H792.702V20.1838H793.722V18.5488H794.729ZM790.529 24.1448V23.5648L788.83 23.6758C787.869 23.7398 787.447 24.0738 787.447 24.7068C787.447 25.3518 787.992 25.7268 788.724 25.7268C789.762 25.7268 790.529 25.0468 790.529 24.1448ZM786.404 24.7308C786.404 23.5998 787.236 22.9488 788.707 22.8618L790.529 22.7498V22.1758C790.529 21.3968 790.043 20.9688 789.099 20.9688C788.344 20.9688 787.816 21.2558 787.676 21.7538H786.656C786.791 20.7398 787.787 20.0718 789.135 20.0718C790.676 20.0718 791.537 20.8638 791.537 22.1758V26.4998H790.576V25.5688H790.482C790.072 26.2418 789.381 26.6118 788.537 26.6118C787.312 26.6118 786.404 25.8848 786.404 24.7308ZM778.72 26.4998H777.724L775.421 18.0448H776.522L778.204 24.9178H778.274L780.167 18.0448H781.233L783.126 24.9178H783.196L784.878 18.0448H785.979L783.677 26.4998H782.681L780.735 19.8258H780.665L778.72 26.4998Z" fill="white" fill-opacity="0.8"/>
<g clip-path="url(#clip2_1_261)">
<path d="M845.244 18.0449H846.352L848.836 25.1347H848.93L851.414 18.0449H852.522L849.405 26.5H848.362L845.244 18.0449ZM853.591 18.2617C853.591 17.875 853.907 17.5586 854.294 17.5586C854.681 17.5586 854.997 17.875 854.997 18.2617C854.997 18.6484 854.681 18.9648 854.294 18.9648C853.907 18.9648 853.591 18.6484 853.591 18.2617ZM853.779 20.1836H854.798V26.5H853.779V20.1836ZM856.278 24.8887H857.321C857.49 25.416 857.994 25.7617 858.803 25.7617C859.653 25.7617 860.256 25.3574 860.256 24.7832V24.7715C860.256 24.3438 859.934 24.0449 859.154 23.8574L858.176 23.623C856.992 23.3418 856.459 22.8261 856.459 21.9179V21.912C856.459 20.8632 857.467 20.0722 858.809 20.0722C860.133 20.0722 861.053 20.7343 861.194 21.7656H860.192C860.057 21.2676 859.565 20.9218 858.803 20.9218C858.053 20.9218 857.502 21.3085 857.502 21.8652V21.8769C857.502 22.3046 857.818 22.5742 858.563 22.7558L859.535 22.9902C860.725 23.2773 861.299 23.7929 861.299 24.6953V24.707C861.299 25.832 860.203 26.6113 858.768 26.6113C857.362 26.6113 856.395 25.9317 856.278 24.8887ZM862.598 18.2617C862.598 17.875 862.914 17.5586 863.301 17.5586C863.688 17.5586 864.004 17.875 864.004 18.2617C864.004 18.6484 863.688 18.9648 863.301 18.9648C862.914 18.9648 862.598 18.6484 862.598 18.2617ZM862.785 20.1836H863.805V26.5H862.785V20.1836ZM865.29 23.3477V23.336C865.29 21.3087 866.404 20.0723 868.202 20.0723C870.001 20.0723 871.114 21.3086 871.114 23.336V23.3477C871.114 25.3692 870.001 26.6114 868.202 26.6114C866.404 26.6114 865.29 25.3692 865.29 23.3477ZM870.071 23.3477V23.336C870.071 21.8419 869.398 20.9747 868.202 20.9747C867.007 20.9747 866.333 21.8419 866.333 23.336V23.3477C866.333 24.836 867.007 25.709 868.202 25.709C869.398 25.709 870.071 24.836 870.071 23.3477ZM872.576 20.1836H873.596V21.1328H873.69C874.006 20.4648 874.598 20.0723 875.529 20.0723C876.947 20.0723 877.738 20.9102 877.738 22.4102V26.5H876.719V22.6562C876.719 21.5195 876.25 20.9746 875.242 20.9746C874.235 20.9746 873.596 21.6543 873.596 22.7617V26.5H872.576V20.1836Z" fill="white" fill-opacity="0.8"/>
</g>
<g clip-path="url(#clip3_1_261)">
<path d="M925.695 20.1836H926.656V21.1206H926.75C926.937 20.5056 927.664 20.0726 928.502 20.0726C928.666 20.0726 928.877 20.0836 929.006 20.1016V21.1096C928.924 21.0856 928.56 21.0506 928.361 21.0506C927.4 21.0506 926.703 21.6956 926.703 22.5856V26.4996H925.695V20.1836ZM953.83 20.0726C955.154 20.0726 956.074 20.7286 956.209 21.7656H955.213C955.078 21.2616 954.586 20.9276 953.824 20.9276C953.074 20.9276 952.488 21.3086 952.488 21.8706C952.488 22.3046 952.84 22.5746 953.584 22.7556L954.557 22.9906C955.746 23.2776 956.32 23.7926 956.32 24.7016C956.32 25.8316 955.225 26.6116 953.789 26.6116C952.383 26.6116 951.416 25.9376 951.305 24.8886H952.342C952.512 25.4216 953.016 25.7616 953.824 25.7616C954.674 25.7616 955.283 25.3576 955.283 24.7776C955.283 24.3436 954.955 24.0506 954.281 23.8866L953.197 23.6226C952.014 23.3356 951.475 22.8266 951.475 21.9126C951.475 20.8636 952.488 20.0726 953.83 20.0726ZM947.165 25.7036C946.01 25.7036 945.319 24.8186 945.319 23.3416C945.319 21.8706 946.016 20.9806 947.165 20.9806C948.307 20.9806 949.022 21.8946 949.022 23.3416C949.022 24.8006 948.313 25.7036 947.165 25.7036ZM948.999 17.6756V21.1796H948.911C948.553 20.4886 947.809 20.0726 946.93 20.0726C945.325 20.0726 944.276 21.3616 944.276 23.3416C944.276 25.3286 945.313 26.6116 946.93 26.6116C947.803 26.6116 948.553 26.1956 948.952 25.4926H949.046V26.4996H950.007V17.6756H948.999ZM939.998 25.7036C938.803 25.7036 938.129 24.8356 938.129 23.3416C938.129 21.8416 938.803 20.9806 939.998 20.9806C941.194 20.9806 941.867 21.8416 941.867 23.3416C941.867 24.8356 941.194 25.7036 939.998 25.7036ZM939.998 20.0726C938.199 20.0726 937.086 21.3086 937.086 23.3416C937.086 25.3696 938.199 26.6116 939.998 26.6116C941.797 26.6116 942.91 25.3696 942.91 23.3416C942.91 21.3086 941.797 20.0726 939.998 20.0726ZM922.927 26.4996H923.935V20.1836H922.927V26.4996ZM922.728 18.2616C922.728 17.8746 923.045 17.5586 923.431 17.5586C923.818 17.5586 924.134 17.8746 924.134 18.2616C924.134 18.6486 923.818 18.9646 923.431 18.9646C923.045 18.9646 922.728 18.6486 922.728 18.2616ZM916.591 23.1836L917.915 19.4106H918.008L919.333 23.1836H916.591ZM918.483 18.0446H917.44L914.323 26.4996H915.43L916.28 24.0796H919.643L920.493 26.4996H921.6L918.483 18.0446ZM933.351 22.5446H931.487V18.9826H933.351C934.575 18.9826 935.249 19.6216 935.249 20.7816C935.249 21.9006 934.552 22.5446 933.351 22.5446ZM933.626 18.0446H930.433V26.4996H931.487V23.4826H933.614C935.202 23.4826 936.333 22.3636 936.333 20.7816C936.333 19.1696 935.226 18.0446 933.626 18.0446Z" fill="white" fill-opacity="0.8"/>
</g>
<path d="M996.506 26.5V18.9941H993.781V18.0449H1000.28V18.9941H997.56V26.5H996.506ZM1004.24 26.5L1001.12 18.0449H1002.23L1004.71 25.1347H1004.81L1007.29 18.0449H1008.4L1005.28 26.5H1004.24ZM1018.22 25.6562C1017.5 26.289 1016.51 26.6582 1015.48 26.6582C1013.8 26.6582 1012.62 25.6621 1012.62 24.2441C1012.62 23.2421 1013.17 22.4804 1014.3 21.8828C1014.37 21.8476 1014.53 21.7656 1014.63 21.7187C1013.85 20.8984 1013.57 20.3535 1013.57 19.7382C1013.57 18.6542 1014.49 17.8456 1015.72 17.8456C1016.97 17.8456 1017.88 18.6425 1017.88 19.7499C1017.88 20.6171 1017.36 21.2499 1016.05 21.9354L1018.17 24.2088C1018.43 23.6815 1018.56 22.99 1018.56 21.9354V21.7889H1019.55V21.9412C1019.55 23.2537 1019.31 24.2088 1018.85 24.9236L1020.32 26.5H1019L1018.22 25.6562ZM1013.68 24.1738C1013.68 25.123 1014.44 25.7676 1015.58 25.7676C1016.34 25.7676 1017.13 25.4629 1017.6 24.9766L1015.21 22.3633C1015.14 22.3867 1014.99 22.4629 1014.91 22.5039C1014.09 22.9258 1013.68 23.5117 1013.68 24.1738ZM1016.89 19.7852C1016.89 19.129 1016.41 18.6836 1015.73 18.6836C1015.05 18.6836 1014.57 19.1406 1014.57 19.7969C1014.57 20.2657 1014.81 20.6758 1015.48 21.3379C1016.51 20.8105 1016.89 20.3887 1016.89 19.7852ZM1030.41 26.5V22.6504H1025.76V26.5H1024.71V18.0449H1025.76V21.7011H1030.41V18.0449H1031.46V26.5H1030.41ZM1033.05 23.3418C1033.05 21.3086 1034.16 20.0723 1035.96 20.0723C1037.76 20.0723 1038.88 21.3086 1038.88 23.3418C1038.88 25.3691 1037.76 26.6113 1035.96 26.6113C1034.16 26.6113 1033.05 25.3691 1033.05 23.3418ZM1037.83 23.3418C1037.83 21.8418 1037.16 20.9805 1035.96 20.9805C1034.77 20.9805 1034.09 21.8418 1034.09 23.3418C1034.09 24.8359 1034.77 25.7031 1035.96 25.7031C1037.16 25.7031 1037.83 24.8359 1037.83 23.3418ZM1040.34 20.1836H1041.3V21.1797H1041.39C1041.68 20.4766 1042.31 20.0723 1043.16 20.0723C1044.01 20.0723 1044.61 20.5235 1044.9 21.1797H1045C1045.34 20.5117 1046.06 20.0723 1046.93 20.0723C1048.22 20.0723 1048.94 20.8106 1048.94 22.1348V26.5H1047.93V22.3691C1047.93 21.4375 1047.49 20.9804 1046.6 20.9804C1045.72 20.9804 1045.14 21.6366 1045.14 22.4394V26.5H1044.13V22.2109C1044.13 21.4609 1043.61 20.9804 1042.81 20.9804C1041.98 20.9804 1041.35 21.6952 1041.35 22.5859V26.5H1040.34L1040.34 20.1836ZM1055.85 24.8652C1055.56 25.9433 1054.57 26.6113 1053.19 26.6113C1051.44 26.6113 1050.34 25.3457 1050.34 23.3476C1050.34 21.3613 1051.46 20.0722 1053.19 20.0722C1054.9 20.0722 1055.93 21.2851 1055.93 23.248V23.6347H1051.39V23.6816C1051.44 24.9296 1052.14 25.7207 1053.21 25.7207C1054.03 25.7207 1054.58 25.4219 1054.84 24.8652H1055.85ZM1051.39 22.8203H1054.87C1054.85 21.7012 1054.18 20.9629 1053.18 20.9629C1052.17 20.9629 1051.47 21.7012 1051.39 22.8203Z" fill="white" fill-opacity="0.8"/>
<g clip-path="url(#clip4_1_261)">
<path d="M1092.27 17.9863H1097.51V18.9355H1093.32V21.6484H1097.29V22.5859H1093.32V25.4921H1097.51V26.4413H1092.27V17.9863ZM1099.17 20.125H1100.19V21.0742H1100.28C1100.6 20.4062 1101.19 20.0137 1102.12 20.0137C1103.54 20.0137 1104.33 20.8516 1104.33 22.3516V26.4414H1103.31V22.5976C1103.31 21.4609 1102.84 20.916 1101.84 20.916C1100.83 20.916 1100.19 21.5957 1100.19 22.7031V26.4414H1099.17V20.125ZM1106.45 24.8008V20.9688H1105.45V20.125H1106.45V18.4902H1107.5V20.125H1108.89V20.9688H1107.5V24.543C1107.5 25.2871 1107.76 25.586 1108.42 25.586C1108.6 25.586 1108.7 25.5801 1108.89 25.5626V26.4298C1108.69 26.465 1108.49 26.4884 1108.3 26.4884C1106.99 26.4883 1106.45 26.0078 1106.45 24.8008ZM1109.89 23.3066V23.3007C1109.89 21.3495 1111 20.0136 1112.72 20.0136C1114.43 20.0136 1115.48 21.2909 1115.48 23.1777V23.5761H1110.93C1110.96 24.8827 1111.68 25.6445 1112.8 25.6445C1113.66 25.6445 1114.19 25.2402 1114.36 24.8593L1114.38 24.8066H1115.4L1115.39 24.8535C1115.17 25.709 1114.27 26.5527 1112.78 26.5527C1110.98 26.5527 1109.89 25.2871 1109.89 23.3066ZM1110.95 22.7617H1114.44C1114.33 21.5137 1113.64 20.9219 1112.71 20.9219C1111.77 20.9219 1111.06 21.5605 1110.95 22.7617ZM1116.94 20.125H1117.96V21.0625H1118.05C1118.29 20.4004 1118.88 20.0137 1119.74 20.0137C1119.93 20.0137 1120.15 20.0371 1120.25 20.0547V21.0449C1120.04 21.0097 1119.84 20.9863 1119.62 20.9863C1118.65 20.9863 1117.96 21.6015 1117.96 22.5273V26.4414H1116.94V20.125ZM1121.9 24.8008V20.9688H1120.91V20.125H1121.9V18.4902H1122.96V20.125H1124.34V20.9688H1122.96V24.543C1122.96 25.2871 1123.22 25.586 1123.87 25.586C1124.05 25.586 1124.15 25.5801 1124.34 25.5626V26.4298C1124.14 26.465 1123.95 26.4884 1123.75 26.4884C1122.45 26.4883 1121.9 26.0078 1121.9 24.8008ZM1125.37 24.6777V24.666C1125.37 23.541 1126.2 22.8906 1127.67 22.8027L1129.48 22.6914V22.1172C1129.48 21.3379 1129.01 20.916 1128.06 20.916C1127.31 20.916 1126.81 21.1972 1126.65 21.6894L1126.64 21.707H1125.62L1125.63 21.6718C1125.79 20.6816 1126.75 20.0136 1128.1 20.0136C1129.64 20.0136 1130.5 20.8046 1130.5 22.1171V26.4413H1129.48V25.5097H1129.39C1128.99 26.1835 1128.33 26.5527 1127.48 26.5527C1126.28 26.5527 1125.37 25.8262 1125.37 24.6777ZM1127.69 25.668C1128.73 25.668 1129.48 24.9883 1129.48 24.086V23.5118L1127.8 23.6173C1126.83 23.6759 1126.41 24.0157 1126.41 24.6427V24.6544C1126.41 25.293 1126.96 25.668 1127.69 25.668ZM1132.08 18.2031C1132.08 17.8164 1132.4 17.5 1132.79 17.5C1133.17 17.5 1133.49 17.8164 1133.49 18.2031C1133.49 18.5898 1133.17 18.9062 1132.79 18.9062C1132.4 18.9062 1132.08 18.5898 1132.08 18.2031ZM1132.27 20.125H1133.29V26.4414H1132.27V20.125ZM1135.09 20.125H1136.11V21.0742H1136.2C1136.52 20.4062 1137.11 20.0137 1138.04 20.0137C1139.46 20.0137 1140.25 20.8516 1140.25 22.3516V26.4414H1139.23V22.5976C1139.23 21.4609 1138.77 20.916 1137.76 20.916C1136.75 20.916 1136.11 21.5957 1136.11 22.7031V26.4414H1135.09V20.125ZM1141.97 20.125H1142.99V21.0859H1143.09C1143.37 20.4062 1143.97 20.0136 1144.79 20.0136C1145.65 20.0136 1146.24 20.4648 1146.54 21.121H1146.63C1146.97 20.453 1147.69 20.0136 1148.57 20.0136C1149.85 20.0136 1150.57 20.7519 1150.57 22.0761V26.4413H1149.56V22.3104C1149.56 21.3788 1149.13 20.9159 1148.24 20.9159C1147.36 20.9159 1146.78 21.578 1146.78 22.3807V26.4412H1145.76V22.1521C1145.76 21.4021 1145.24 20.9158 1144.45 20.9158C1143.62 20.9158 1142.99 21.6365 1142.99 22.5271V26.4412H1141.97L1141.97 20.125ZM1151.98 23.3066V23.3007C1151.98 21.3495 1153.09 20.0136 1154.81 20.0136C1156.52 20.0136 1157.57 21.2909 1157.57 23.1777V23.5761H1153.02C1153.05 24.8827 1153.77 25.6445 1154.9 25.6445C1155.75 25.6445 1156.28 25.2402 1156.45 24.8593L1156.47 24.8066H1157.49L1157.48 24.8535C1157.26 25.709 1156.36 26.5527 1154.87 26.5527C1153.07 26.5527 1151.98 25.2871 1151.98 23.3066ZM1153.04 22.7617H1156.53C1156.43 21.5137 1155.73 20.9219 1154.8 20.9219C1153.86 20.9219 1153.15 21.5605 1153.04 22.7617ZM1159.03 20.125H1160.05V21.0742H1160.14C1160.46 20.4062 1161.05 20.0137 1161.98 20.0137C1163.4 20.0137 1164.19 20.8516 1164.19 22.3516V26.4414H1163.17V22.5976C1163.17 21.4609 1162.7 20.916 1161.7 20.916C1160.69 20.916 1160.05 21.5957 1160.05 22.7031V26.4414H1159.03V20.125ZM1166.31 24.8008V20.9688H1165.31V20.125H1166.31V18.4902H1167.36V20.125H1168.75V20.9688H1167.36V24.543C1167.36 25.2871 1167.62 25.586 1168.28 25.586C1168.46 25.586 1168.56 25.5801 1168.75 25.5626V26.4298C1168.55 26.465 1168.36 26.4884 1168.16 26.4884C1166.86 26.4883 1166.31 26.0078 1166.31 24.8008Z" fill="white" fill-opacity="0.8"/>
</g>
<g clip-path="url(#clip5_1_261)">
<path d="M1210.07 24.0715H1206.71L1205.86 26.4914H1204.75L1207.87 18.0363H1208.91L1212.03 26.4914H1210.92L1210.07 24.0715ZM1207.02 23.175H1209.76L1208.44 19.4016H1208.34L1207.02 23.175ZM1217.12 22.1086C1216.95 21.4816 1216.4 20.9719 1215.49 20.9719C1214.35 20.9719 1213.64 21.8801 1213.64 23.3098C1213.64 24.7688 1214.36 25.6946 1215.49 25.6946C1216.34 25.6946 1216.93 25.302 1217.12 24.5872H1218.14C1217.95 25.7474 1217.01 26.6028 1215.49 26.6028C1213.72 26.6028 1212.59 25.3196 1212.59 23.3098C1212.59 21.341 1213.72 20.0637 1215.49 20.0637C1217.02 20.0637 1217.96 20.9836 1218.14 22.1086H1217.12ZM1223.71 22.1086C1223.55 21.4816 1222.99 20.9719 1222.08 20.9719C1220.95 20.9719 1220.23 21.8801 1220.23 23.3098C1220.23 24.7688 1220.96 25.6946 1222.08 25.6946C1222.93 25.6946 1223.52 25.302 1223.71 24.5872H1224.73C1224.55 25.7474 1223.61 26.6028 1222.09 26.6028C1220.32 26.6028 1219.19 25.3196 1219.19 23.3098C1219.19 21.341 1220.31 20.0637 1222.08 20.0637C1223.62 20.0637 1224.55 20.9836 1224.73 22.1086H1223.71ZM1231.29 24.8566C1231 25.9347 1230.01 26.6027 1228.63 26.6027C1226.88 26.6027 1225.78 25.3371 1225.78 23.339C1225.78 21.3527 1226.9 20.0636 1228.63 20.0636C1230.34 20.0636 1231.37 21.2765 1231.37 23.2394V23.6261H1226.83V23.673C1226.88 24.921 1227.58 25.7121 1228.65 25.7121C1229.47 25.7121 1230.02 25.4133 1230.28 24.8566H1231.29ZM1226.83 22.8117H1230.31C1230.29 21.6926 1229.62 20.9543 1228.62 20.9543C1227.61 20.9543 1226.91 21.6926 1226.83 22.8117ZM1235.04 20.0637C1236.37 20.0637 1237.29 20.7199 1237.42 21.7571H1236.43C1236.29 21.2532 1235.8 20.9192 1235.04 20.9192C1234.29 20.9192 1233.7 21.3001 1233.7 21.8626C1233.7 22.2962 1234.05 22.5657 1234.8 22.7474L1235.77 22.9818C1236.96 23.2689 1237.53 23.7845 1237.53 24.6927C1237.53 25.8236 1236.44 26.6029 1235 26.6029C1233.6 26.6029 1232.63 25.9291 1232.52 24.8802H1233.56C1233.73 25.4134 1234.23 25.7532 1235.04 25.7532C1235.89 25.7532 1236.5 25.3489 1236.5 24.7688C1236.5 24.3352 1236.17 24.0422 1235.49 23.8782L1234.41 23.6145C1233.23 23.3274 1232.69 22.8176 1232.69 21.9036C1232.69 20.8547 1233.7 20.0637 1235.04 20.0637ZM1241.09 20.0637C1242.41 20.0637 1243.33 20.7199 1243.47 21.7571H1242.47C1242.34 21.2532 1241.84 20.9192 1241.08 20.9192C1240.33 20.9192 1239.75 21.3001 1239.75 21.8626C1239.75 22.2962 1240.1 22.5657 1240.84 22.7474L1241.81 22.9818C1243 23.2689 1243.58 23.7845 1243.58 24.6927C1243.58 25.8236 1242.48 26.6029 1241.05 26.6029C1239.64 26.6029 1238.67 25.9291 1238.56 24.8802H1239.6C1239.77 25.4134 1240.27 25.7532 1241.08 25.7532C1241.93 25.7532 1242.54 25.3489 1242.54 24.7688C1242.54 24.3352 1242.21 24.0422 1241.54 23.8782L1240.45 23.6145C1239.27 23.3274 1238.73 22.8176 1238.73 21.9036C1238.73 20.8547 1239.75 20.0637 1241.09 20.0637ZM1244.72 23.3332C1244.72 21.3 1245.84 20.0637 1247.64 20.0637C1249.43 20.0637 1250.55 21.3 1250.55 23.3332C1250.55 25.3605 1249.43 26.6027 1247.64 26.6027C1245.84 26.6027 1244.72 25.3605 1244.72 23.3332ZM1249.5 23.3332C1249.5 21.8332 1248.83 20.9719 1247.64 20.9719C1246.44 20.9719 1245.77 21.8332 1245.77 23.3332C1245.77 24.8273 1246.44 25.6945 1247.64 25.6945C1248.83 25.6945 1249.5 24.8273 1249.5 23.3332ZM1252.01 20.175H1252.97V21.1125H1253.06C1253.25 20.4973 1253.98 20.0637 1254.82 20.0637C1254.98 20.0637 1255.19 20.0754 1255.32 20.093V21.1008C1255.24 21.0774 1254.88 21.0422 1254.68 21.0422C1253.72 21.0422 1253.02 21.6867 1253.02 22.5774V26.4915H1252.01L1252.01 20.175ZM1256.28 18.2531C1256.28 17.8664 1256.6 17.55 1256.99 17.55C1257.37 17.55 1257.69 17.8664 1257.69 18.2531C1257.69 18.6398 1257.37 18.9562 1256.99 18.9562C1256.6 18.9562 1256.28 18.6398 1256.28 18.2531ZM1256.48 20.175H1257.49V26.4914H1256.48V20.175ZM1264.48 24.8566C1264.19 25.9347 1263.21 26.6027 1261.82 26.6027C1260.07 26.6027 1258.98 25.3371 1258.98 23.339C1258.98 21.3527 1260.09 20.0636 1261.82 20.0636C1263.53 20.0636 1264.57 21.2765 1264.57 23.2394V23.6261H1260.03V23.673C1260.08 24.921 1260.78 25.7121 1261.85 25.7121C1262.66 25.7121 1263.21 25.4133 1263.48 24.8566H1264.48ZM1260.03 22.8117H1263.51C1263.48 21.6926 1262.81 20.9543 1261.81 20.9543C1260.8 20.9543 1260.1 21.6926 1260.03 22.8117ZM1268.24 20.0637C1269.56 20.0637 1270.48 20.7199 1270.62 21.7571H1269.62C1269.49 21.2532 1268.99 20.9192 1268.23 20.9192C1267.48 20.9192 1266.9 21.3001 1266.9 21.8626C1266.9 22.2962 1267.25 22.5657 1267.99 22.7474L1268.96 22.9818C1270.15 23.2689 1270.73 23.7845 1270.73 24.6927C1270.73 25.8236 1269.63 26.6029 1268.2 26.6029C1266.79 26.6029 1265.82 25.9291 1265.71 24.8802H1266.75C1266.92 25.4134 1267.42 25.7532 1268.23 25.7532C1269.08 25.7532 1269.69 25.3489 1269.69 24.7688C1269.69 24.3352 1269.36 24.0422 1268.69 23.8782L1267.6 23.6145C1266.42 23.3274 1265.88 22.8176 1265.88 21.9036C1265.88 20.8547 1266.9 20.0637 1268.24 20.0637Z" fill="white" fill-opacity="0.8"/>
</g>
<g clip-path="url(#clip6_1_261)">
<path d="M1348.67 18.5337V20.1687H1350.08V21.0127H1348.67V24.5867C1348.67 25.3307 1348.95 25.6467 1349.61 25.6467C1349.79 25.6467 1349.89 25.6407 1350.08 25.6237V26.4727C1349.88 26.5087 1349.68 26.5317 1349.48 26.5317C1348.18 26.5317 1347.66 26.0517 1347.66 24.8447V21.0127H1346.64V20.1687H1347.66V18.5337H1348.67ZM1342.54 20.1687H1343.5V21.1057H1343.59C1343.78 20.4907 1344.51 20.0567 1345.35 20.0567C1345.51 20.0567 1345.72 20.0687 1345.85 20.0867V21.0947C1345.77 21.0707 1345.4 21.0357 1345.21 21.0357C1344.24 21.0357 1343.55 21.6797 1343.55 22.5707V26.4847H1342.54V20.1687ZM1340.08 23.3267C1340.08 21.8267 1339.4 20.9657 1338.21 20.9657C1337.01 20.9657 1336.34 21.8267 1336.34 23.3267C1336.34 24.8207 1337.01 25.6877 1338.21 25.6877C1339.4 25.6877 1340.08 24.8207 1340.08 23.3267ZM1335.3 23.3267C1335.3 21.2937 1336.41 20.0567 1338.21 20.0567C1340.01 20.0567 1341.12 21.2937 1341.12 23.3267C1341.12 25.3537 1340.01 26.5967 1338.21 26.5967C1336.41 26.5967 1335.3 25.3537 1335.3 23.3267ZM1333.19 23.3267C1333.19 21.8497 1332.5 20.9657 1331.34 20.9657C1330.2 20.9657 1329.48 21.8737 1329.48 23.3267C1329.48 24.7737 1330.2 25.6877 1331.34 25.6877C1332.5 25.6877 1333.19 24.8037 1333.19 23.3267ZM1334.23 23.3267C1334.23 25.3017 1333.18 26.5967 1331.58 26.5967C1330.67 26.5967 1329.95 26.2037 1329.6 25.5357H1329.51V28.5947H1328.5V20.1687H1329.46V21.2227H1329.55C1329.96 20.4967 1330.71 20.0567 1331.58 20.0567C1333.19 20.0567 1334.23 21.3407 1334.23 23.3267ZM1326.18 23.3267C1326.18 21.8497 1325.49 20.9657 1324.34 20.9657C1323.19 20.9657 1322.47 21.8737 1322.47 23.3267C1322.47 24.7737 1323.19 25.6877 1324.33 25.6877C1325.49 25.6877 1326.18 24.8037 1326.18 23.3267ZM1327.23 23.3267C1327.23 25.3017 1326.18 26.5967 1324.57 26.5967C1323.67 26.5967 1322.94 26.2037 1322.6 25.5357H1322.5V28.5947H1321.5V20.1687H1322.46V21.2227H1322.55C1322.95 20.4967 1323.71 20.0567 1324.57 20.0567C1326.18 20.0567 1327.23 21.3407 1327.23 23.3267ZM1319.58 26.4847H1318.62V25.4947H1318.53C1318.21 26.1977 1317.54 26.5967 1316.57 26.5967C1315.15 26.5967 1314.41 25.7527 1314.41 24.2587V20.1687H1315.42V24.0127C1315.42 25.1487 1315.84 25.6767 1316.85 25.6767C1317.96 25.6767 1318.57 25.0137 1318.57 23.9067V20.1687H1319.58V26.4847ZM1307.89 24.2757C1308.02 25.1607 1308.86 25.7227 1310.06 25.7227C1311.2 25.7227 1312.04 25.1077 1312.04 24.2697C1312.04 23.5497 1311.51 23.0927 1310.35 22.7997L1309.26 22.5177C1307.73 22.1317 1307.07 21.4397 1307.07 20.2387C1307.07 18.8037 1308.27 17.8307 1310.06 17.8307C1311.69 17.8307 1312.91 18.8037 1313 20.1687H1311.94C1311.79 19.3017 1311.08 18.7857 1310.02 18.7857C1308.9 18.7857 1308.15 19.3477 1308.15 20.2037C1308.15 20.8657 1308.62 21.2467 1309.78 21.5457L1310.67 21.7797C1312.42 22.2197 1313.12 22.8987 1313.12 24.1407C1313.12 25.6937 1311.9 26.6837 1309.96 26.6837C1308.17 26.6837 1306.94 25.7347 1306.82 24.2757H1307.89Z" fill="white" fill-opacity="0.8"/>
</g>
<g clip-path="url(#clip7_1_261)">
<path d="M1399.99 27.702L1396.12 23.832C1396.82 22.903 1397.24 21.751 1397.24 20.5C1397.24 17.44 1394.75 14.95 1391.69 14.95C1388.63 14.95 1386.14 17.44 1386.14 20.5C1386.14 23.561 1388.63 26.05 1391.69 26.05C1392.94 26.05 1394.09 25.629 1395.02 24.928L1398.89 28.798C1399.04 28.949 1399.24 29.026 1399.44 29.026C1399.64 29.026 1399.84 28.95 1399.99 28.798C1400.29 28.495 1400.29 28.005 1399.99 27.702ZM1387.24 20.5C1387.24 18.046 1389.24 16.05 1391.69 16.05C1394.14 16.05 1396.14 18.047 1396.14 20.5C1396.14 22.953 1394.14 24.95 1391.69 24.95C1389.24 24.95 1387.24 22.954 1387.24 20.5Z" fill="white" fill-opacity="0.8"/>
</g>
<g clip-path="url(#clip8_1_261)">
<path d="M1447.18 16.5283H1446.16C1446.05 15.7173 1445.66 14.9723 1445.05 14.4284C1444.43 13.8845 1443.65 13.5777 1442.83 13.5635C1442.01 13.5777 1441.23 13.8845 1440.61 14.4284C1440 14.9723 1439.61 15.7173 1439.5 16.5283H1438.48C1437.92 16.5287 1437.38 16.7517 1436.98 17.1485C1436.58 17.5452 1436.36 18.0833 1436.36 18.6445V26.36C1436.36 26.9212 1436.58 27.4592 1436.98 27.856C1437.38 28.2528 1437.92 28.4761 1438.48 28.4767H1447.18C1447.74 28.4762 1448.28 28.2531 1448.68 27.8562C1449.08 27.4594 1449.3 26.9213 1449.3 26.36V18.6445C1449.3 18.0834 1449.08 17.5454 1448.68 17.1487C1448.28 16.7519 1447.74 16.5288 1447.18 16.5283ZM1442.83 14.6631C1443.36 14.6746 1443.87 14.8657 1444.27 15.2048C1444.67 15.544 1444.95 16.0109 1445.05 16.5283H1440.61C1440.71 16.0109 1440.99 15.544 1441.39 15.2048C1441.79 14.8657 1442.3 14.6746 1442.83 14.6631ZM1448.2 26.36C1448.2 26.6296 1448.09 26.888 1447.9 27.0787C1447.71 27.2694 1447.45 27.3767 1447.18 27.3771H1438.48C1438.21 27.3767 1437.95 27.2693 1437.76 27.0787C1437.57 26.888 1437.46 26.6296 1437.46 26.36V18.6445C1437.46 18.375 1437.57 18.1166 1437.76 17.926C1437.95 17.7354 1438.21 17.6282 1438.48 17.6279H1447.18C1447.45 17.6283 1447.71 17.7355 1447.9 17.9261C1448.09 18.1167 1448.2 18.375 1448.2 18.6445V26.36Z" fill="white" fill-opacity="0.8"/>
</g>
</g>
<defs>
<filter id="filter0_b_1_261" x="-20" y="-19.5" width="1960" height="84" filterUnits="userSpaceOnUse" color-interpolation-filters="sRGB">
<feFlood flood-opacity="0" result="BackgroundImageFix"/>
<feGaussianBlur in="BackgroundImageFix" stdDeviation="10"/>
<feComposite in2="SourceAlpha" operator="in" result="effect1_backgroundBlur_1_261"/>
<feBlend mode="normal" in="SourceGraphic" in2="effect1_backgroundBlur_1_261" result="shape"/>
</filter>
<clipPath id="clip0_1_261">
<rect width="30" height="44" fill="white" transform="translate(519.14 0.5)"/>
</clipPath>
<clipPath id="clip1_1_261">
<rect width="23" height="44" fill="white" transform="translate(584.28 0.5)"/>
</clipPath>
<clipPath id="clip2_1_261">
<rect width="34" height="44" fill="white" transform="translate(844.84 0.5)"/>
</clipPath>
<clipPath id="clip3_1_261">
<rect width="43" height="44" fill="white" transform="translate(913.98 0.5)"/>
</clipPath>
<clipPath id="clip4_1_261">
<rect width="77" height="44" fill="white" transform="translate(1092.27 0.5)"/>
</clipPath>
<clipPath id="clip5_1_261">
<rect width="67" height="44" fill="white" transform="translate(1204.41 0.5)"/>
</clipPath>
<clipPath id="clip6_1_261">
<rect width="44" height="44" fill="white" transform="translate(1306.55 0.5)"/>
</clipPath>
<clipPath id="clip7_1_261">
<rect width="15" height="44" fill="white" transform="translate(1385.69 0.5)"/>
</clipPath>
<clipPath id="clip8_1_261">
<rect width="14" height="44" fill="white" transform="translate(1435.83 0.5)"/>
</clipPath>
</defs>
</svg>
